<svg id="Capa_1" enable-background="new 0 0 512 512" height="512" viewBox="0 0 512 512" width="512" xmlns="http://www.w3.org/2000/svg"><g><path d="m504.855 210.343-97.855-60.142c-4.628-2.845-30 2.954-30 8.387v129.49c0 5.44 27.586 9.852 30 8.359l97.892-60.559c4.426-2.738 7.116-7.574 7.108-12.778-.008-5.203-2.712-10.033-7.145-12.757z" fill="#ff3f5c"/><path d="m105 150.2-97.854 60.143c-4.434 2.725-7.138 7.554-7.146 12.758s2.683 10.04 7.108 12.778l97.892 60.559s30-2.919 30-8.359v-129.49c0-5.434-30-8.389-30-8.389z" fill="#ff712f"/><path d="m384.108 275.321-128.108 79.251-128.108-79.251c-4.628-2.862-22.892 21.117-22.892 21.117v200.562c0 8.284 6.716 15 15 15h272c8.284 0 15-6.716 15-15v-200.562c0-5.441-18.263-23.979-22.892-21.117z" fill="#edf5ff"/><path d="m384.108 275.321-128.108 79.251v157.428h136c8.284 0 15-6.716 15-15v-200.562s-18.263-23.979-22.892-21.117z" fill="#d5e8fe"/><path d="m392 0h-272c-8.284 0-15 6.716-15 15v143.588c0 5.433 2.938 10.44 7.68 13.092 4.74 2.652 10.545 2.533 15.175-.313l128.145-78.761 128.145 78.761c2.405 1.479 5.128 2.221 7.855 2.221 2.52 0 15-23.387 15-23.387v-135.201c0-8.284-6.716-15-15-15z" fill="#edf5ff"/><path d="m392 0h-136v92.606l128.145 78.761c2.405 1.479 22.855-15.733 22.855-21.166v-135.201c0-8.284-6.716-15-15-15z" fill="#d5e8fe"/><path d="m263.855 62.221c-4.818-2.961-10.891-2.961-15.709 0l-143.146 87.979v146.237l143.108 88.53c2.418 1.495 5.155 2.243 7.892 2.243 2.736 0 5.474-.748 7.892-2.243l143.108-88.529v-146.237z" fill="#61729b"/><path d="m263.855 62.221c-2.41-1.481-5.132-2.221-7.855-2.221v327.211c2.736 0 5.474-.748 7.892-2.243l143.108-88.53v-146.237z" fill="#47568c"/><path d="m263.442 210.082-65.333-37.333s-18.655 2.809-19.905 4.677c-1.627 2.43-2.537 5.323-2.537 8.347v74.666c0 5.383 2.885 10.353 7.558 13.023l65.333 37.333c2.307 1.318 4.874 1.977 7.442 1.977 2.601 0 15-15 15-15v-74.666c0-5.383-2.885-10.353-7.558-13.024z" fill="#0095ff"/><path d="m313.891 172.749-57.891 33.08v106.942c2.567 0 5.136-.658 7.442-1.977l65.333-37.333c4.673-2.671 7.558-7.641 7.558-13.023v-74.666c0-3.023-.91-5.917-2.537-8.347-1.25-1.867-19.905-4.676-19.905-4.676z" fill="#1c78be"/><path d="m333.795 177.426c-1.268-1.895-2.973-3.506-5.02-4.677l-65.333-37.333c-4.611-2.635-10.273-2.635-14.885 0l-65.333 37.333c-2.047 1.171-3.752 2.782-5.019 4.677l77.795 50.68z" fill="#4bb9ec"/><path d="m328.775 172.749-65.333-37.333c-2.306-1.317-4.874-1.977-7.442-1.977v94.666l77.795-50.68c-1.268-1.894-2.973-3.505-5.02-4.676z" fill="#0095ff"/><path d="m271 462h-30c-8.284 0-15-6.716-15-15s6.716-15 15-15h30c8.284 0 15 6.716 15 15s-6.716 15-15 15z" fill="#4bb9ec"/><path d="m271 432h-15v30h15c8.284 0 15-6.716 15-15s-6.716-15-15-15z" fill="#0095ff"/></g></svg>