<?xml version="1.0" standalone="no"?>
<!DOCTYPE svg PUBLIC "-//W3C//DTD SVG 20010904//EN"
 "http://www.w3.org/TR/2001/REC-SVG-20010904/DTD/svg10.dtd">
<svg version="1.0" xmlns="http://www.w3.org/2000/svg"
 width="1150.000000pt" height="950.000000pt" viewBox="0 0 1150.000000 950.000000"
 preserveAspectRatio="xMidYMid meet">

<g transform="translate(0.000000,950.000000) scale(0.100000,-0.100000)"
fill="#000000" stroke="none">
<path d="M0 4750 l0 -4750 5750 0 5750 0 0 4750 0 4750 -5750 0 -5750 0 0
-4750z m1500 4000 l0 -250 250 0 250 0 0 250 0 250 1000 0 1000 0 0 -250 0
-250 250 0 250 0 0 250 0 250 250 0 250 0 0 -500 0 -500 250 0 250 0 0 -250 0
-250 250 0 250 0 0 -250 0 -250 250 0 250 0 0 -250 0 -250 500 0 500 0 0 -250
0 -250 1750 0 1750 0 0 -250 0 -250 -750 0 -750 0 0 -1250 0 -1250 -250 0
-250 0 0 -1000 0 -1000 -250 0 -250 0 0 -250 0 -250 -250 0 -250 0 0 750 0
750 -500 0 -500 0 0 -250 0 -250 -250 0 -250 0 0 -250 0 -250 -250 0 -250 0 0
500 0 500 -1000 0 -1000 0 0 -250 0 -250 -250 0 -250 0 0 -250 0 -250 -250 0
-250 0 0 500 0 500 -500 0 -500 0 0 -500 0 -500 -250 0 -250 0 0 -250 0 -250
-250 0 -250 0 0 1000 0 1000 -250 0 -250 0 0 2500 0 2500 250 0 250 0 0 750 0
750 250 0 250 0 0 -250z"/>
<path d="M1500 7250 l0 -250 250 0 250 0 0 250 0 250 -250 0 -250 0 0 -250z"/>
<path d="M3000 7250 l0 -250 250 0 250 0 0 250 0 250 -250 0 -250 0 0 -250z"/>
<path d="M2000 6000 l0 -500 -250 0 -250 0 0 250 0 250 -250 0 -250 0 0 -250
0 -250 250 0 250 0 0 -250 0 -250 1000 0 1000 0 0 250 0 250 250 0 250 0 0
250 0 250 -250 0 -250 0 0 -250 0 -250 -500 0 -500 0 0 250 0 250 250 0 250 0
0 250 0 250 -500 0 -500 0 0 -500z"/>
</g>
</svg>
